<svg xmlns="http://www.w3.org/2000/svg" viewBox="0 0 500 700" role="img" aria-label="The Bedside Books colophon">
  <g stroke="#2A2520" fill="none" stroke-linecap="round" stroke-linejoin="round">
    <ellipse cx="250" cy="380" rx="135" ry="245" stroke-width="3"/>
    <ellipse cx="250" cy="380" rx="120" ry="228" stroke-width="1"/>
  </g>
  <g fill="#2A2520">
    <circle cx="250" cy="135" r="5"/>
    <circle cx="250" cy="625" r="5"/>
  </g>

  <g stroke="#2A2520" fill="none" stroke-width="2.5" stroke-linecap="round" stroke-linejoin="round">
    <rect x="185" y="500" width="130" height="18"/>
    <rect x="195" y="482" width="110" height="18"/>
    <rect x="205" y="464" width="90" height="18"/>
  </g>

  <g stroke="#2A2520" fill="none" stroke-width="2.5" stroke-linecap="round" stroke-linejoin="round">
    <path d="M 200 440 Q 200 415 250 408 Q 300 415 300 440 Q 300 458 250 462 Q 200 458 200 440 Z"/>
    <rect x="240" y="385" width="20" height="22"/>
  </g>
  <path d="M 245 388 Q 250 360 255 388 Q 254 370 250 360 Q 246 370 245 388 Z" fill="#2A2520"/>
</svg>
