<svg xmlns="http://www.w3.org/2000/svg" viewBox="0 0 1000 1200" role="img" aria-label="The Bedside Books">
  <!-- Imprint mark: colophon over the wordmark, matching the mark on the book jacket. -->

  <!-- Colophon (lamp on books in vertical oval cartouche) -->
  <g transform="translate(250, 0)" stroke="#2A2520" fill="none" stroke-linecap="round" stroke-linejoin="round">
    <ellipse cx="250" cy="380" rx="142" ry="252" stroke-width="3"/>
    <ellipse cx="250" cy="380" rx="126" ry="234" stroke-width="1"/>
    <circle cx="250" cy="128" r="6" fill="#2A2520" stroke="none"/>
    <circle cx="250" cy="632" r="6" fill="#2A2520" stroke="none"/>
    <rect x="178" y="510" width="144" height="22" stroke-width="2.4"/>
    <line x1="186" y1="516" x2="186" y2="526" stroke-width="1.2"/>
    <line x1="194" y1="516" x2="194" y2="526" stroke-width="1"/>
    <rect x="192" y="488" width="116" height="22" stroke-width="2.4"/>
    <line x1="200" y1="494" x2="200" y2="504" stroke-width="1.2"/>
    <rect x="206" y="466" width="88" height="22" stroke-width="2.4"/>
    <line x1="214" y1="472" x2="214" y2="482" stroke-width="1.2"/>
    <path d="M 234 462 Q 250 458 266 462 Q 250 470 234 462 Z" fill="#2A2520" stroke="none"/>
    <ellipse cx="250" cy="452" rx="11" ry="4" stroke-width="2"/>
    <line x1="250" y1="450" x2="250" y2="402" stroke-width="2.4"/>
    <ellipse cx="250" cy="428" rx="6" ry="5" stroke-width="2" fill="#FAF6EF"/>
    <path d="M 224 400 L 276 400 L 296 348 L 204 348 Z" stroke-width="2.4"/>
    <line x1="219" y1="388" x2="281" y2="388" stroke-width="1"/>
    <line x1="214" y1="376" x2="286" y2="376" stroke-width="1"/>
    <line x1="209" y1="362" x2="291" y2="362" stroke-width="1"/>
    <path d="M 224 400 Q 250 408 276 400" stroke-width="2"/>
    <line x1="250" y1="348" x2="250" y2="338" stroke-width="2.2"/>
    <circle cx="250" cy="334" r="3.5" fill="#2A2520" stroke="none"/>
  </g>

  <!-- Wordmark below the colophon -->
  <text x="500" y="1060" text-anchor="middle"
    font-family="'EB Garamond', Garamond, Baskerville, serif"
    font-size="98" fill="#2A2520" letter-spacing="22">
    THE BEDSIDE BOOKS
  </text>
</svg>
